<svg xmlns="http://www.w3.org/2000/svg" width="240" height="240" viewBox="0 0 240 240"><g id="stamp-osaka" color="#27356B" stroke="#27356B" fill="none" stroke-linecap="round" stroke-linejoin="round"><path d="M38 17H202L223 38V202L202 223H38L17 202V38Z" stroke-width="3.8" fill="none"/><path d="M40 24H200L216 40V200L200 216H40L24 200V40Z" stroke-width="1.1" fill="none"/><text x="120" y="49" font-family="Arial, Helvetica, sans-serif" font-size="18" font-weight="700" fill="#27356B" stroke="none" text-anchor="middle" letter-spacing="2.5">OSAKA</text><text x="120" y="205" font-family="Arial, Helvetica, sans-serif" font-size="10" font-weight="700" fill="#27356B" stroke="none" text-anchor="middle" letter-spacing="2.8">JAPAN</text><path d="M73 159L78 140H165L172 159ZM85 139V119H158V139M79 119Q103 109 121 98Q141 109 165 119ZM96 110V90H146V110M87 90Q109 82 121 71Q134 82 155 90ZM111 81V67H132V81M101 67Q115 64 121 54Q128 64 143 67Z" stroke-width="3" fill="none"/><path d="M99 124V136M113 124V136M131 124V136M144 124V136M110 96V105M132 96V105M93 147H153" stroke-width="2" fill="none"/><g transform="translate(57 112) scale(0.6)"><path d="M0 0L-12 21H-6L-18 37H-9L-23 55H23L9 37H18L6 21H12Z" stroke-width="2" fill="#27356B"/><path d="M0 52V65" stroke-width="4" fill="none"/></g><path d="M76 169H164" stroke-width="1.3" fill="none"/><text x="120" y="185" font-family="Arial, Helvetica, sans-serif" font-size="11" font-weight="700" fill="#27356B" stroke="none" text-anchor="middle" letter-spacing="1.3">MAY 2026</text></g></svg>