<svg xmlns="http://www.w3.org/2000/svg" width="240" height="240" viewBox="0 0 240 240"><g stroke="#000000" fill="none" stroke-linecap="round" stroke-linejoin="round"><g transform="translate(121 73) scale(1.15)"><path d="M0 0L-12 21H-6L-18 37H-9L-23 55H23L9 37H18L6 21H12Z" stroke-width="2" fill="#000000"/><path d="M0 52V65" stroke-width="4" fill="none"/></g><g transform="translate(70 107) scale(0.73)"><path d="M0 0L-12 21H-6L-18 37H-9L-23 55H23L9 37H18L6 21H12Z" stroke-width="2" fill="#000000"/><path d="M0 52V65" stroke-width="4" fill="none"/></g><g transform="translate(176 109) scale(0.7)"><path d="M0 0L-12 21H-6L-18 37H-9L-23 55H23L9 37H18L6 21H12Z" stroke-width="2" fill="#000000"/><path d="M0 52V65" stroke-width="4" fill="none"/></g><path d="M49 160H192" stroke-width="3" fill="none"/></g></svg>