<svg xmlns="http://www.w3.org/2000/svg" width="240" height="240" viewBox="0 0 240 240"><g stroke="#000000" fill="none" stroke-linecap="round" stroke-linejoin="round"><path d="M47 127L68 115L91 110L117 84L142 85L155 103L177 114L194 127ZM95 113L119 91L133 94M134 88L144 110M155 105L168 118" stroke-width="3" fill="none"/><path d="M52 141Q68 133 84 141T116 141T148 141T180 141M68 154Q84 146 100 154T132 154T164 154" stroke-width="2.6" fill="none"/><g transform="translate(63 88) scale(0.65)"><path d="M0 54Q8 22 0 0M0 0Q-22 -18 -31 3Q-12 -3 0 0M0 0Q20 -19 31 -1Q14 -5 0 0M0 0Q-19 0 -19 20M0 0Q18 0 20 18" stroke-width="3" fill="none"/></g></g></svg>